# xmcd CD database file
#
# Track frame offsets:
#	150
#	13679
#	28707
#	52196
#	62813
#	77862
#	95384
#	112608
#	129597
#
# Disc length: 2018 seconds
#
# Revision: 0
# Processed by: cddbd v1.5.1PL0 Copyright (c) Steve Scherf et al.
# Submitted via: CDex 1.51
#
DISCID=6f07e009
DTITLE=Smokie - Solid Groud
DYEAR=1981
DGENRE=Blues
TTITLE0=Jet Lagged
TTITLE1=I`m In Love With You
TTITLE2=Everything A Man Could Need
TTITLE3=My Woman Don`t Like Rock`n`Roll
TTITLE4=Take Good Care Of My Baby
TTITLE5=Rock`n`Roll Woman
TTITLE6=Your Love Is So Good For Me
TTITLE7=Long Time Coming
TTITLE8=Melody Goes On/Songs
EXTD=YEAR: 1981
EXTT0=
EXTT1=
EXTT2=
EXTT3=
EXTT4=
EXTT5=
EXTT6=
EXTT7=
EXTT8=
PLAYORDER=
